<svg width="240" height="80" viewBox="0 0 240 80" fill="none" xmlns="http://www.w3.org/2000/svg">
  <!-- Skyline -->
  <path d="M30 50 L30 30 L40 30 L40 40 L50 40 L50 25 L60 25 L60 45 L70 45 L70 15 L80 15 L80 35 L90 35 L90 25 L100 25 L100 40 L110 40 L110 20 L120 20 L120 30 L130 30 L130 45 L140 45 L140 35 L150 35 L150 25 L160 25 L160 40 L170 40 L170 30 L180 30 L180 50" fill="#7B57B2" />
  
  <!-- Crepe cone -->
  <path d="M90 50 L105 75 L120 50 Z" fill="#FFC72C" />
  <path d="M95 50 L105 70 L115 50 Z" fill="#E63462" />
  
  <!-- Text -->
  <text x="40" y="65" font-family="Montserrat, sans-serif" font-weight="800" font-size="16" fill="#7B57B2">CITY</text>
  <text x="100" y="65" font-family="Pacifico, cursive" font-size="18" fill="#4BBFBB">Crêpe</text>
</svg>